<svg viewBox="0 0 24 24" xmlns="http://www.w3.org/2000/svg"><path d="m3.1672 7.5655v8.749h1.0228v-6.325a8.979 8.979 0 0 0 -.0488-1.1998h.0384a2.9082 2.9082 0 0 0 .2784.5473l4.4973 6.9774h1.2569v-8.7489h-1.0218v6.1526a9.2574 9.2574 0 0 0 .0619 1.286h-.0234c-.0544-.1056-.173-.3002-.3553-.585l-4.3772-6.8535zm9.315 0v8.749h4.65l.0048-.9599h-3.6087v-3.0331h3.1579v-.9215h-3.1579v-2.9084h3.3884v-.926zm5.4374 0v.926h2.5149v7.823h1.0216v-7.823h2.5439v-.926zm-17.2662 7.5015a.643.643 0 0 0 -.4565.2062.6719.6719 0 0 0 -.1969.4798.6623.6623 0 0 0 .1968.4799.6479.6479 0 0 0 .4799.2015.6623.6623 0 0 0 .4799-.2015.6575.6575 0 0 0 .2015-.48.667.667 0 0 0 -.2015-.4798.6575.6575 0 0 0 -.4799-.2062.643.643 0 0 0 -.0234 0z"/></svg>