<?xml version="1.0" standalone="no"?>
<!DOCTYPE svg PUBLIC "-//W3C//DTD SVG 20010904//EN"
 "http://www.w3.org/TR/2001/REC-SVG-20010904/DTD/svg10.dtd">
<svg version="1.0" xmlns="http://www.w3.org/2000/svg"
 width="500.000000pt" height="500.000000pt" viewBox="0 0 500.000000 500.000000"
 preserveAspectRatio="xMidYMid meet">

<g transform="translate(0.000000,500.000000) scale(0.100000,-0.100000)"
fill="#000000" stroke="none">
<path d="M2560 4794 c-333 -28 -466 -47 -654 -95 -369 -93 -632 -252 -770
-467 -48 -74 -91 -168 -101 -222 -5 -28 -16 -42 -51 -64 -94 -59 -177 -186
-209 -317 -33 -136 -29 -347 8 -533 l12 -58 -60 -62 c-118 -120 -170 -264
-162 -446 7 -177 67 -315 187 -430 97 -92 250 -169 340 -170 l35 0 33 -117
c25 -91 93 -269 148 -388 2 -6 -146 -96 -329 -201 -423 -243 -628 -368 -685
-419 -41 -37 -45 -46 -49 -95 -5 -51 2 -72 87 -283 l93 -227 2025 2 2026 3 38
205 c72 396 91 574 69 633 -22 56 -175 171 -416 312 -55 32 -106 64 -113 70
-11 10 -6 24 28 76 175 269 313 722 350 1149 13 149 13 454 0 600 -70 786
-437 1293 -1069 1476 -161 47 -308 65 -546 69 -121 1 -240 1 -265 -1z m565
-219 c433 -71 736 -276 926 -629 29 -54 37 -78 26 -73 -63 24 -117 31 -244 32
-78 0 -143 -2 -146 -5 -4 -4 13 -112 27 -175 5 -19 14 -20 128 -21 103 -1 133
-4 181 -23 78 -31 125 -74 158 -146 23 -53 49 -169 49 -222 0 -10 -31 37 -69
105 -38 68 -72 124 -76 125 -12 2 -165 -87 -165 -96 0 -5 34 -69 76 -144 42
-74 73 -137 70 -140 -5 -6 -112 6 -211 23 -30 6 -30 6 -53 -78 -12 -46 -22
-88 -22 -95 1 -41 361 -67 427 -30 18 9 35 17 39 17 12 0 -4 -346 -21 -475
-44 -333 -170 -711 -309 -930 -55 -86 -189 -219 -274 -272 -85 -53 -208 -98
-307 -113 -357 -51 -897 111 -1141 342 -81 76 -153 200 -183 316 -13 48 -18
49 -136 29 -68 -12 -70 -13 -67 -40 11 -92 98 -275 179 -379 52 -65 160 -157
248 -210 30 -18 55 -36 55 -39 0 -4 -15 -13 -32 -20 -18 -7 -54 -34 -79 -60
l-46 -47 -89 13 c-232 35 -417 150 -518 324 -58 98 -117 245 -157 393 l-32
116 47 54 c27 29 61 75 77 103 l29 50 -83 42 c-45 23 -85 42 -89 42 -4 1 -23
-23 -43 -53 -41 -62 -65 -72 -145 -61 -112 15 -259 120 -309 221 -89 178 -55
424 74 530 91 74 241 116 302 83 61 -33 103 -165 103 -327 l0 -92 201 101 202
101 -6 72 c-4 39 -19 112 -34 161 -48 159 -37 238 67 500 59 150 72 202 72
292 -1 54 -7 88 -27 138 l-27 67 58 87 c276 406 781 604 1319 516z m715 -3500
c50 -26 60 -52 67 -176 6 -120 -6 -229 -32 -279 -23 -44 -65 -55 -210 -54 -90
0 -149 5 -191 17 -47 13 -102 17 -226 17 l-165 0 -105 -44 c-218 -91 -456
-156 -574 -156 -51 0 -67 18 -83 91 -14 61 -21 466 -9 500 13 38 51 54 123 53
90 -2 154 -24 413 -140 229 -103 233 -104 308 -104 76 0 77 0 143 49 126 93
295 196 381 232 51 21 112 19 160 -6z m-1821 -155 l86 -17 3 -57 c2 -32 -1
-56 -7 -56 -11 0 -211 147 -211 156 0 3 10 2 22 -1 11 -4 60 -15 107 -25z"/>
<path d="M2384 3900 c-181 -47 -306 -162 -368 -338 l-15 -40 77 -17 c42 -9 86
-19 98 -22 17 -4 24 4 38 40 23 61 83 127 147 162 43 23 69 30 134 33 44 2
103 0 131 -5 l51 -10 23 94 c12 52 20 96 17 99 -9 10 -125 24 -192 23 -38 0
-102 -9 -141 -19z"/>
<path d="M2795 3499 c-44 -17 -81 -32 -84 -34 -5 -6 82 -237 125 -332 19 -41
34 -79 34 -85 0 -13 -94 -2 -164 20 -28 9 -55 16 -60 17 -10 0 -86 -167 -79
-177 11 -20 174 -61 259 -66 117 -6 178 12 228 69 53 58 51 114 -8 240 -24 52
-68 158 -97 236 -30 79 -58 143 -64 142 -5 0 -46 -14 -90 -30z"/>
<path d="M3300 3386 c0 -8 6 -47 14 -88 43 -225 166 -438 346 -597 39 -35 98
-95 131 -133 57 -66 59 -71 44 -88 -23 -25 -135 -83 -225 -115 -88 -31 -239
-65 -293 -65 -37 0 -38 0 -32 33 l6 32 -83 33 c-46 17 -89 32 -95 32 -11 0
-33 -81 -33 -123 0 -84 70 -175 150 -197 160 -44 607 91 743 224 58 56 80 107
75 166 -9 87 -42 135 -223 320 -181 184 -231 253 -279 381 -14 37 -30 97 -37
133 l-11 66 -99 0 c-79 0 -99 -3 -99 -14z"/>
<path d="M992 2727 c-23 -29 -50 -73 -61 -98 -41 -91 -49 -255 -12 -245 9 3
45 10 81 16 99 17 95 13 96 75 1 43 8 67 32 104 l30 49 -55 68 c-30 38 -58 73
-62 77 -4 4 -26 -16 -49 -46z"/>
<path d="M2802 2102 c-34 -42 -58 -80 -55 -85 12 -20 157 -107 225 -135 146
-61 355 -97 486 -85 60 6 60 6 39 128 l-12 69 -105 3 c-174 4 -343 57 -472
148 l-46 34 -60 -77z"/>
<path d="M3884 2129 c-35 -37 -168 -102 -242 -119 l-54 -12 7 -52 c3 -28 8
-72 11 -99 l6 -48 36 7 c70 13 167 46 232 80 66 35 190 128 190 143 0 11 -135
131 -147 131 -5 0 -22 -14 -39 -31z"/>
<path d="M2683 1797 c-43 -13 -73 -27 -73 -35 0 -28 51 -110 96 -155 103 -102
233 -141 464 -141 138 1 331 22 347 38 3 3 -5 46 -17 96 l-23 92 -41 -5 c-212
-27 -289 -30 -378 -19 -122 16 -209 57 -241 113 -25 45 -31 46 -134 16z"/>
</g>
</svg>
