<svg width="70" height="33" viewBox="0 0 70 33" fill="none" xmlns="http://www.w3.org/2000/svg">
<mask id="path-1-outside-1_38_8" maskUnits="userSpaceOnUse" x="-1" y="-1" width="72" height="35" fill="black">
<rect fill="white" x="-1" y="-1" width="72" height="35"/>
<path d="M0.392405 2.72152C0.392405 2.2827 0.544304 1.91139 0.848101 1.6076C1.1519 1.3038 1.52321 1.1519 1.96203 1.1519H5.55696C5.96203 1.1519 6.26582 1.28692 6.46835 1.55696C6.67089 1.79325 6.77215 2.06329 6.77215 2.36709C6.77215 2.63713 6.67089 2.90717 6.46835 3.17722C6.26582 3.4135 5.96203 3.53165 5.55696 3.53165H3.58228V30.4684H5.55696C5.96203 30.4684 6.26582 30.5865 6.46835 30.8228C6.67089 31.0928 6.77215 31.3797 6.77215 31.6835C6.77215 31.9873 6.67089 32.2574 6.46835 32.4937C6.26582 32.7637 5.96203 32.8987 5.55696 32.8987H1.96203C1.48945 32.8987 1.10127 32.7468 0.797468 32.443C0.527426 32.1392 0.392405 31.7679 0.392405 31.3291V2.72152ZM15.3444 8.18987C15.3444 8.93249 15.5639 9.6076 16.0027 10.2152C16.4752 10.8228 17.0828 11.346 17.8255 11.7848C18.5681 12.1899 19.412 12.5443 20.3571 12.8481C21.3022 13.1519 22.298 13.4726 23.3444 13.8101C24.4246 14.1477 25.4541 14.519 26.4331 14.9241C27.4457 15.3291 28.3402 15.8354 29.1166 16.443C30.8044 17.7595 31.6482 19.5654 31.6482 21.8608C31.6482 22.9409 31.3782 23.9705 30.8381 24.9494C30.3318 25.8945 29.606 26.7046 28.6609 27.3797C26.7706 28.73 24.2896 29.4051 21.2179 29.4051C18.0786 29.4051 15.4626 28.6624 13.3698 27.1772C12.0871 26.3333 11.412 25.7426 11.3444 25.4051C11.3107 25.27 11.2938 25.135 11.2938 25C11.2938 24.8312 11.3276 24.6456 11.3951 24.443C11.4626 24.2405 11.547 24.0717 11.6482 23.9367C11.952 23.5654 12.2221 23.3797 12.4584 23.3797C12.7284 23.3797 12.9816 23.4641 13.2179 23.6329C13.4541 23.8017 13.7242 24.0042 14.028 24.2405C14.3655 24.4768 14.7706 24.7468 15.2432 25.0506C15.7495 25.3544 16.3065 25.6245 16.9141 25.8608C18.2643 26.3333 19.5639 26.5696 20.8128 26.5696C22.0955 26.5696 23.1419 26.4852 23.952 26.3165C24.7959 26.1139 25.5217 25.8101 26.1293 25.4051C27.412 24.5274 28.0533 23.4135 28.0533 22.0633C28.0533 19.7342 26.3655 18.0464 22.99 17C22.0449 16.6962 21.0491 16.3924 20.0027 16.0886C18.99 15.7511 17.9774 15.3629 16.9647 14.9241C15.952 14.4852 15.0575 13.962 14.2812 13.3544C13.5048 12.7468 12.8803 12.0211 12.4077 11.1772C11.9689 10.2996 11.7495 9.32067 11.7495 8.24051C11.7495 7.16034 12.0195 6.14768 12.5596 5.20253C13.0997 4.25738 13.8086 3.48101 14.6862 2.87342C16.509 1.55696 18.7537 0.898735 21.4204 0.898735C25.2347 0.898735 28.3233 2.14768 30.6862 4.64557C30.855 4.81434 30.9394 5.03375 30.9394 5.3038C30.9394 5.57384 30.9056 5.79325 30.8381 5.96203C30.8044 6.1308 30.7368 6.2827 30.6356 6.41772C30.3993 6.75527 30.0786 6.92405 29.6736 6.92405C29.2685 6.92405 28.8297 6.68776 28.3571 6.21519C27.3107 5.43882 26.4331 4.89873 25.7242 4.59494C24.4752 4.08861 23.1419 3.83544 21.7242 3.83544C20.0364 3.83544 18.6018 4.18987 17.4204 4.89873C16.0364 5.67511 15.3444 6.77215 15.3444 8.18987ZM37.6565 2.82278C37.6565 2.38397 37.7747 2.02953 38.011 1.75949C38.4498 1.35443 38.9055 1.1519 39.3781 1.1519H47.7831C52.2388 1.1519 55.2262 2.36709 56.7452 4.79747C57.3527 5.70886 57.6565 6.92405 57.6565 8.44304C57.6565 9.96203 57.1502 11.2447 56.1376 12.2911C55.1587 13.3376 53.7578 14.0633 51.935 14.4684V14.5696C53.7241 14.8397 54.9899 15.4979 55.7325 16.5443C56.3063 17.4557 56.6776 18.6203 56.8464 20.038C57.2177 23.1772 57.454 25.5907 57.5553 27.2785C57.5553 27.8523 57.3696 28.2911 56.9983 28.5949C56.6608 28.865 56.2726 29 55.8338 29C55.3949 29 54.9899 28.8819 54.6186 28.6456C54.2473 28.3755 54.0447 27.9705 54.011 27.4304C53.8422 25.8439 53.7072 24.4599 53.6059 23.2785C53.5046 22.0633 53.3865 21.0338 53.2515 20.1899C53.1165 19.346 52.9308 18.6709 52.6945 18.1646C52.492 17.6245 52.1882 17.2025 51.7831 16.8987C51.0068 16.3586 49.6397 16.0886 47.6819 16.0886H41.0996V27.3797C41.0996 28.1561 40.7452 28.6624 40.0363 28.8987C39.8 28.9662 39.5131 29 39.1755 29C38.8717 29 38.5342 28.865 38.1629 28.5949C37.8253 28.3249 37.6565 27.9198 37.6565 27.3797V2.82278ZM46.2135 13.3544C49.5215 13.3544 51.7156 12.8312 52.7958 11.7848C53.6059 11.0422 54.011 9.9789 54.011 8.59494C54.011 6.60338 53.2852 5.27004 51.8338 4.59494C50.8211 4.12236 49.3696 3.88608 47.4793 3.88608H41.0996V13.3544H46.2135ZM69.346 31.3291C69.346 31.7679 69.1772 32.1392 68.8397 32.443C68.5359 32.7468 68.1646 32.8987 67.7258 32.8987H64.1308C63.7258 32.8987 63.422 32.7637 63.2194 32.4937C63.0169 32.2574 62.9156 31.9873 62.9156 31.6835C62.9156 31.3797 63.0169 31.0928 63.2194 30.8228C63.422 30.5865 63.7258 30.4684 64.1308 30.4684H66.1562V3.53165H64.1308C63.7258 3.53165 63.422 3.4135 63.2194 3.17722C63.0169 2.90717 62.9156 2.62025 62.9156 2.31645C62.9156 2.01266 63.0169 1.74262 63.2194 1.50633C63.422 1.27004 63.7258 1.1519 64.1308 1.1519H67.7258C68.1646 1.1519 68.5359 1.3038 68.8397 1.6076C69.1772 1.91139 69.346 2.2827 69.346 2.72152V31.3291Z"/>
</mask>
<g filter="url(#filter0_i_38_8)">
<path d="M0.392405 2.72152C0.392405 2.2827 0.544304 1.91139 0.848101 1.6076C1.1519 1.3038 1.52321 1.1519 1.96203 1.1519H5.55696C5.96203 1.1519 6.26582 1.28692 6.46835 1.55696C6.67089 1.79325 6.77215 2.06329 6.77215 2.36709C6.77215 2.63713 6.67089 2.90717 6.46835 3.17722C6.26582 3.4135 5.96203 3.53165 5.55696 3.53165H3.58228V30.4684H5.55696C5.96203 30.4684 6.26582 30.5865 6.46835 30.8228C6.67089 31.0928 6.77215 31.3797 6.77215 31.6835C6.77215 31.9873 6.67089 32.2574 6.46835 32.4937C6.26582 32.7637 5.96203 32.8987 5.55696 32.8987H1.96203C1.48945 32.8987 1.10127 32.7468 0.797468 32.443C0.527426 32.1392 0.392405 31.7679 0.392405 31.3291V2.72152ZM15.3444 8.18987C15.3444 8.93249 15.5639 9.6076 16.0027 10.2152C16.4752 10.8228 17.0828 11.346 17.8255 11.7848C18.5681 12.1899 19.412 12.5443 20.3571 12.8481C21.3022 13.1519 22.298 13.4726 23.3444 13.8101C24.4246 14.1477 25.4541 14.519 26.4331 14.9241C27.4457 15.3291 28.3402 15.8354 29.1166 16.443C30.8044 17.7595 31.6482 19.5654 31.6482 21.8608C31.6482 22.9409 31.3782 23.9705 30.8381 24.9494C30.3318 25.8945 29.606 26.7046 28.6609 27.3797C26.7706 28.73 24.2896 29.4051 21.2179 29.4051C18.0786 29.4051 15.4626 28.6624 13.3698 27.1772C12.0871 26.3333 11.412 25.7426 11.3444 25.4051C11.3107 25.27 11.2938 25.135 11.2938 25C11.2938 24.8312 11.3276 24.6456 11.3951 24.443C11.4626 24.2405 11.547 24.0717 11.6482 23.9367C11.952 23.5654 12.2221 23.3797 12.4584 23.3797C12.7284 23.3797 12.9816 23.4641 13.2179 23.6329C13.4541 23.8017 13.7242 24.0042 14.028 24.2405C14.3655 24.4768 14.7706 24.7468 15.2432 25.0506C15.7495 25.3544 16.3065 25.6245 16.9141 25.8608C18.2643 26.3333 19.5639 26.5696 20.8128 26.5696C22.0955 26.5696 23.1419 26.4852 23.952 26.3165C24.7959 26.1139 25.5217 25.8101 26.1293 25.4051C27.412 24.5274 28.0533 23.4135 28.0533 22.0633C28.0533 19.7342 26.3655 18.0464 22.99 17C22.0449 16.6962 21.0491 16.3924 20.0027 16.0886C18.99 15.7511 17.9774 15.3629 16.9647 14.9241C15.952 14.4852 15.0575 13.962 14.2812 13.3544C13.5048 12.7468 12.8803 12.0211 12.4077 11.1772C11.9689 10.2996 11.7495 9.32067 11.7495 8.24051C11.7495 7.16034 12.0195 6.14768 12.5596 5.20253C13.0997 4.25738 13.8086 3.48101 14.6862 2.87342C16.509 1.55696 18.7537 0.898735 21.4204 0.898735C25.2347 0.898735 28.3233 2.14768 30.6862 4.64557C30.855 4.81434 30.9394 5.03375 30.9394 5.3038C30.9394 5.57384 30.9056 5.79325 30.8381 5.96203C30.8044 6.1308 30.7368 6.2827 30.6356 6.41772C30.3993 6.75527 30.0786 6.92405 29.6736 6.92405C29.2685 6.92405 28.8297 6.68776 28.3571 6.21519C27.3107 5.43882 26.4331 4.89873 25.7242 4.59494C24.4752 4.08861 23.1419 3.83544 21.7242 3.83544C20.0364 3.83544 18.6018 4.18987 17.4204 4.89873C16.0364 5.67511 15.3444 6.77215 15.3444 8.18987ZM37.6565 2.82278C37.6565 2.38397 37.7747 2.02953 38.011 1.75949C38.4498 1.35443 38.9055 1.1519 39.3781 1.1519H47.7831C52.2388 1.1519 55.2262 2.36709 56.7452 4.79747C57.3527 5.70886 57.6565 6.92405 57.6565 8.44304C57.6565 9.96203 57.1502 11.2447 56.1376 12.2911C55.1587 13.3376 53.7578 14.0633 51.935 14.4684V14.5696C53.7241 14.8397 54.9899 15.4979 55.7325 16.5443C56.3063 17.4557 56.6776 18.6203 56.8464 20.038C57.2177 23.1772 57.454 25.5907 57.5553 27.2785C57.5553 27.8523 57.3696 28.2911 56.9983 28.5949C56.6608 28.865 56.2726 29 55.8338 29C55.3949 29 54.9899 28.8819 54.6186 28.6456C54.2473 28.3755 54.0447 27.9705 54.011 27.4304C53.8422 25.8439 53.7072 24.4599 53.6059 23.2785C53.5046 22.0633 53.3865 21.0338 53.2515 20.1899C53.1165 19.346 52.9308 18.6709 52.6945 18.1646C52.492 17.6245 52.1882 17.2025 51.7831 16.8987C51.0068 16.3586 49.6397 16.0886 47.6819 16.0886H41.0996V27.3797C41.0996 28.1561 40.7452 28.6624 40.0363 28.8987C39.8 28.9662 39.5131 29 39.1755 29C38.8717 29 38.5342 28.865 38.1629 28.5949C37.8253 28.3249 37.6565 27.9198 37.6565 27.3797V2.82278ZM46.2135 13.3544C49.5215 13.3544 51.7156 12.8312 52.7958 11.7848C53.6059 11.0422 54.011 9.9789 54.011 8.59494C54.011 6.60338 53.2852 5.27004 51.8338 4.59494C50.8211 4.12236 49.3696 3.88608 47.4793 3.88608H41.0996V13.3544H46.2135ZM69.346 31.3291C69.346 31.7679 69.1772 32.1392 68.8397 32.443C68.5359 32.7468 68.1646 32.8987 67.7258 32.8987H64.1308C63.7258 32.8987 63.422 32.7637 63.2194 32.4937C63.0169 32.2574 62.9156 31.9873 62.9156 31.6835C62.9156 31.3797 63.0169 31.0928 63.2194 30.8228C63.422 30.5865 63.7258 30.4684 64.1308 30.4684H66.1562V3.53165H64.1308C63.7258 3.53165 63.422 3.4135 63.2194 3.17722C63.0169 2.90717 62.9156 2.62025 62.9156 2.31645C62.9156 2.01266 63.0169 1.74262 63.2194 1.50633C63.422 1.27004 63.7258 1.1519 64.1308 1.1519H67.7258C68.1646 1.1519 68.5359 1.3038 68.8397 1.6076C69.1772 1.91139 69.346 2.2827 69.346 2.72152V31.3291Z" fill="#010101"/>
</g>
<path d="M0.848101 1.6076L1.55521 2.3147L1.55521 2.3147L0.848101 1.6076ZM6.46835 1.55696L5.66835 2.15696L5.6879 2.18302L5.7091 2.20776L6.46835 1.55696ZM6.46835 3.17722L7.22761 3.82801L7.24881 3.80327L7.26836 3.77721L6.46835 3.17722ZM3.58228 3.53165V2.53165H2.58228V3.53165H3.58228ZM3.58228 30.4684H2.58228V31.4684H3.58228V30.4684ZM6.46835 30.8228L7.26835 30.2228L7.24881 30.1967L7.22761 30.172L6.46835 30.8228ZM6.46835 32.4937L5.7091 31.8429L5.6879 31.8676L5.66835 31.8937L6.46835 32.4937ZM0.797468 32.443L0.0500589 33.1074L0.0695821 33.1294L0.0903615 33.1501L0.797468 32.443ZM1.39241 2.72152C1.39241 2.54156 1.44339 2.42652 1.55521 2.3147L0.140996 0.900488C-0.354786 1.39627 -0.607595 2.02384 -0.607595 2.72152H1.39241ZM1.55521 2.3147C1.66702 2.20289 1.78207 2.1519 1.96203 2.1519V0.151899C1.26435 0.151899 0.636774 0.404709 0.140994 0.900489L1.55521 2.3147ZM1.96203 2.1519H5.55696V0.151899H1.96203V2.1519ZM5.55696 2.1519C5.60296 2.1519 5.6347 2.15575 5.65466 2.15955C5.67423 2.16328 5.68233 2.16692 5.68247 2.16698C5.68266 2.16706 5.68153 2.16657 5.67948 2.16533C5.67742 2.16407 5.67509 2.16247 5.67277 2.16062C5.66758 2.15646 5.66621 2.15411 5.66835 2.15696L7.26835 0.956963C6.8382 0.383423 6.20602 0.151899 5.55696 0.151899V2.1519ZM5.7091 2.20776C5.76043 2.26764 5.77215 2.3083 5.77215 2.36709H7.77215C7.77215 1.81828 7.58135 1.31886 7.22761 0.90617L5.7091 2.20776ZM5.77215 2.36709C5.77215 2.37163 5.77401 2.43634 5.66835 2.57722L7.26836 3.77721C7.56776 3.378 7.77215 2.90263 7.77215 2.36709H5.77215ZM5.7091 2.52642C5.71269 2.52223 5.71805 2.51721 5.72401 2.51305C5.72978 2.50901 5.73159 2.50892 5.72616 2.51103C5.71409 2.51573 5.66453 2.53165 5.55696 2.53165V4.53165C6.15988 4.53165 6.7814 4.34858 7.22761 3.82801L5.7091 2.52642ZM5.55696 2.53165H3.58228V4.53165H5.55696V2.53165ZM2.58228 3.53165V30.4684H4.58228V3.53165H2.58228ZM3.58228 31.4684H5.55696V29.4684H3.58228V31.4684ZM5.55696 31.4684C5.66453 31.4684 5.71409 31.4843 5.72616 31.489C5.73159 31.4911 5.72978 31.491 5.72401 31.487C5.71805 31.4828 5.71269 31.4778 5.7091 31.4736L7.22761 30.172C6.7814 29.6514 6.15988 29.4684 5.55696 29.4684V31.4684ZM5.66835 31.4228C5.75624 31.54 5.77215 31.6201 5.77215 31.6835H7.77215C7.77215 31.1394 7.58553 30.6457 7.26835 30.2228L5.66835 31.4228ZM5.77215 31.6835C5.77215 31.7423 5.76043 31.783 5.7091 31.8429L7.22761 33.1445C7.58135 32.7318 7.77215 32.2324 7.77215 31.6835H5.77215ZM5.66835 31.8937C5.66621 31.8965 5.66758 31.8942 5.67277 31.89C5.67509 31.8882 5.67742 31.8866 5.67948 31.8853C5.68153 31.8841 5.68266 31.8836 5.68247 31.8837C5.68233 31.8837 5.67423 31.8874 5.65466 31.8911C5.6347 31.8949 5.60296 31.8987 5.55696 31.8987V33.8987C6.20602 33.8987 6.8382 33.6672 7.26835 33.0937L5.66835 31.8937ZM5.55696 31.8987H1.96203V33.8987H5.55696V31.8987ZM1.96203 31.8987C1.72555 31.8987 1.6012 31.8326 1.50458 31.7359L0.0903615 33.1501C0.601331 33.6611 1.25336 33.8987 1.96203 33.8987V31.8987ZM1.54488 31.7787C1.45107 31.6731 1.39241 31.5442 1.39241 31.3291H-0.607595C-0.607595 31.9917 -0.39622 32.6053 0.0500589 33.1074L1.54488 31.7787ZM1.39241 31.3291V2.72152H-0.607595V31.3291H1.39241ZM16.0027 10.2152L15.192 10.8007L15.2024 10.8151L15.2133 10.8291L16.0027 10.2152ZM17.8255 11.7848L17.3167 12.6457L17.3315 12.6545L17.3466 12.6627L17.8255 11.7848ZM20.3571 12.8481L20.6631 11.8961L20.6631 11.8961L20.3571 12.8481ZM23.3444 13.8101L23.0374 14.7619L23.0462 14.7646L23.3444 13.8101ZM26.4331 14.9241L26.0507 15.8481L26.0617 15.8525L26.4331 14.9241ZM29.1166 16.443L28.5003 17.2305L28.5016 17.2315L29.1166 16.443ZM30.8381 24.9494L29.9625 24.4663L29.9566 24.4771L30.8381 24.9494ZM28.6609 27.3797L28.0797 26.566L28.0797 26.566L28.6609 27.3797ZM13.3698 27.1772L13.9485 26.3617L13.9341 26.3515L13.9194 26.3418L13.3698 27.1772ZM11.3444 25.4051L12.325 25.2089L12.3204 25.1856L12.3146 25.1625L11.3444 25.4051ZM11.3951 24.443L10.4464 24.1268L10.4464 24.1268L11.3951 24.443ZM11.6482 23.9367L10.8743 23.3035L10.8609 23.3198L10.8482 23.3367L11.6482 23.9367ZM13.2179 23.6329L13.7991 22.8192L13.7991 22.8192L13.2179 23.6329ZM14.028 24.2405L13.414 25.0299L13.4339 25.0453L13.4545 25.0597L14.028 24.2405ZM15.2432 25.0506L14.7024 25.8918L14.7154 25.9002L14.7287 25.9081L15.2432 25.0506ZM16.9141 25.8608L16.5516 26.7928L16.5676 26.799L16.5837 26.8046L16.9141 25.8608ZM23.952 26.3165L24.156 27.2954L24.1708 27.2924L24.1854 27.2888L23.952 26.3165ZM26.1293 25.4051L26.684 26.2372L26.6939 26.2304L26.1293 25.4051ZM22.99 17L22.684 17.9521L22.6939 17.9552L22.99 17ZM20.0027 16.0886L19.6864 17.0373L19.705 17.0435L19.7239 17.049L20.0027 16.0886ZM16.9647 14.9241L16.5671 15.8416L16.5671 15.8416L16.9647 14.9241ZM14.2812 13.3544L13.6648 14.1419L13.6648 14.1419L14.2812 13.3544ZM12.4077 11.1772L11.5133 11.6244L11.5238 11.6454L11.5352 11.6658L12.4077 11.1772ZM12.5596 5.20253L11.6914 4.70639L11.6914 4.70639L12.5596 5.20253ZM14.6862 2.87342L15.2554 3.69561L15.2636 3.68993L15.2717 3.6841L14.6862 2.87342ZM30.6862 4.64557L29.9597 5.33277L29.9693 5.34286L29.9791 5.35268L30.6862 4.64557ZM30.8381 5.96203L29.9096 5.59063L29.8755 5.67588L29.8575 5.76591L30.8381 5.96203ZM30.6356 6.41772L29.8356 5.81772L29.8257 5.83083L29.8163 5.84426L30.6356 6.41772ZM28.3571 6.21519L29.0642 5.50808L29.0121 5.45599L28.9529 5.41209L28.3571 6.21519ZM25.7242 4.59494L26.1181 3.67579L26.109 3.6719L26.0999 3.6682L25.7242 4.59494ZM17.4204 4.89873L17.9096 5.77088L17.9224 5.76374L17.9349 5.75623L17.4204 4.89873ZM14.3444 8.18987C14.3444 9.14478 14.6313 10.0244 15.192 10.8007L16.8133 9.6297C16.4964 9.19082 16.3444 8.7202 16.3444 8.18987H14.3444ZM15.2133 10.8291C15.7718 11.5472 16.4789 12.1506 17.3167 12.6457L18.3342 10.9239C17.6868 10.5413 17.1787 10.0983 16.792 9.60125L15.2133 10.8291ZM17.3466 12.6627C18.1529 13.1025 19.0561 13.4803 20.0511 13.8001L20.6631 11.8961C19.7678 11.6083 18.9832 11.2772 18.3043 10.9069L17.3466 12.6627ZM20.0511 13.8001C20.9959 14.1038 21.9913 14.4244 23.0374 14.7618L23.6514 12.8584C22.6047 12.5208 21.6086 12.2 20.6631 11.8961L20.0511 13.8001ZM23.0462 14.7646C24.0998 15.0939 25.1011 15.4551 26.0507 15.8481L26.8154 14C25.8072 13.5828 24.7494 13.2015 23.6427 12.8556L23.0462 14.7646ZM26.0617 15.8525C26.9957 16.2261 27.8059 16.6871 28.5003 17.2305L29.7329 15.6555C28.8745 14.9838 27.8958 14.4321 26.8044 13.9956L26.0617 15.8525ZM28.5016 17.2315C29.9268 18.3432 30.6482 19.8478 30.6482 21.8608H32.6482C32.6482 19.283 31.6819 17.1758 29.7316 15.6545L28.5016 17.2315ZM30.6482 21.8608C30.6482 22.7659 30.424 23.6299 29.9625 24.4663L31.7137 25.4324C32.3324 24.311 32.6482 23.1159 32.6482 21.8608H30.6482ZM29.9566 24.4771C29.5287 25.2759 28.9104 25.9726 28.0797 26.566L29.2421 28.1935C30.3017 27.4367 31.1348 26.5132 31.7196 25.4216L29.9566 24.4771ZM28.0797 26.566C26.4061 27.7614 24.1477 28.4051 21.2179 28.4051V30.4051C24.4315 30.4051 27.1351 29.6985 29.2421 28.1935L28.0797 26.566ZM21.2179 28.4051C18.239 28.4051 15.8375 27.7023 13.9485 26.3617L12.791 27.9927C15.0876 29.6226 17.9183 30.4051 21.2179 30.4051V28.4051ZM13.9194 26.3418C13.2934 25.93 12.8474 25.6002 12.5599 25.3487C12.4156 25.2224 12.3322 25.1339 12.2899 25.081C12.2341 25.0112 12.2955 25.0611 12.325 25.2089L10.3639 25.6012C10.4272 25.9178 10.5983 26.1681 10.7281 26.3304C10.8714 26.5095 11.0496 26.6847 11.2429 26.8538C11.6305 27.193 12.1634 27.5805 12.8201 28.0126L13.9194 26.3418ZM12.3146 25.1625C12.3 25.1044 12.2938 25.0508 12.2938 25H10.2938C10.2938 25.2193 10.3213 25.4357 10.3743 25.6476L12.3146 25.1625ZM12.2938 25C12.2938 24.9628 12.3017 24.8856 12.3438 24.7593L10.4464 24.1268C10.3535 24.4056 10.2938 24.6996 10.2938 25H12.2938ZM12.3438 24.7593C12.3859 24.633 12.4259 24.5664 12.4482 24.5367L10.8482 23.3367C10.668 23.577 10.5393 23.8481 10.4464 24.1268L12.3438 24.7593ZM12.4222 24.5699C12.4786 24.5011 12.5267 24.449 12.5662 24.4106C12.6061 24.3719 12.6326 24.3516 12.6451 24.343C12.676 24.3218 12.607 24.3797 12.4584 24.3797V22.3797C12.0734 22.3797 11.7513 22.5305 11.5121 22.6949C11.2723 22.8598 11.061 23.0753 10.8743 23.3035L12.4222 24.5699ZM12.4584 24.3797C12.504 24.3797 12.5565 24.3894 12.6366 24.4466L13.7991 22.8192C13.4067 22.5389 12.9528 22.3797 12.4584 22.3797V24.3797ZM12.6366 24.4466C12.859 24.6055 13.1178 24.7994 13.414 25.0299L14.6419 23.4512C14.3306 23.209 14.0493 22.9979 13.7991 22.8192L12.6366 24.4466ZM13.4545 25.0597C13.8059 25.3057 14.2225 25.5833 14.7024 25.8918L15.7839 24.2095C15.3187 23.9104 14.9252 23.6479 14.6014 23.4213L13.4545 25.0597ZM14.7287 25.9081C15.2882 26.2438 15.8967 26.5381 16.5516 26.7928L17.2765 24.9288C16.7162 24.7109 16.2108 24.465 15.7577 24.1931L14.7287 25.9081ZM16.5837 26.8046C18.0249 27.309 19.4363 27.5696 20.8128 27.5696V25.5696C19.6914 25.5696 18.5036 25.3576 17.2444 24.9169L16.5837 26.8046ZM20.8128 27.5696C22.131 27.5696 23.2528 27.4836 24.156 27.2954L23.7481 25.3375C23.0311 25.4869 22.06 25.5696 20.8128 25.5696V27.5696ZM24.1854 27.2888C25.1228 27.0639 25.9618 26.7185 26.684 26.2371L25.5746 24.573C25.0815 24.9017 24.4691 25.164 23.7187 25.3441L24.1854 27.2888ZM26.6939 26.2304C28.2014 25.199 29.0533 23.7974 29.0533 22.0633H27.0533C27.0533 23.0296 26.6225 23.8559 25.5646 24.5798L26.6939 26.2304ZM29.0533 22.0633C29.0533 20.6262 28.5208 19.3697 27.4946 18.3435C26.4939 17.3428 25.0601 16.5948 23.2861 16.0448L22.6939 17.9552C24.2954 18.4516 25.3933 19.0707 26.0804 19.7577C26.7419 20.4193 27.0533 21.1712 27.0533 22.0633H29.0533ZM23.296 16.048C22.341 15.741 21.3361 15.4345 20.2815 15.1283L19.7239 17.049C20.762 17.3504 21.7487 17.6514 22.684 17.952L23.296 16.048ZM20.3189 15.1399C19.3347 14.8119 18.3492 14.4341 17.3623 14.0065L16.5671 15.8416C17.6055 16.2916 18.6453 16.6902 19.6864 17.0373L20.3189 15.1399ZM17.3623 14.0065C16.4186 13.5976 15.5993 13.1162 14.8975 12.5669L13.6648 14.1419C14.5157 14.8078 15.4855 15.3729 16.5671 15.8416L17.3623 14.0065ZM14.8975 12.5669C14.2234 12.0394 13.6868 11.4146 13.2802 10.6886L11.5352 11.6658C12.0738 12.6276 12.7862 13.4543 13.6648 14.1419L14.8975 12.5669ZM13.3022 10.73C12.9395 10.0048 12.7495 9.18132 12.7495 8.24051H10.7495C10.7495 9.46003 10.9983 10.5944 11.5133 11.6244L13.3022 10.73ZM12.7495 8.24051C12.7495 7.33578 12.9734 6.49396 13.4279 5.69867L11.6914 4.70639C11.0657 5.8014 10.7495 6.98489 10.7495 8.24051H12.7495ZM13.4279 5.69867C13.8954 4.88052 14.503 4.21649 15.2554 3.69561L14.117 2.05123C13.1141 2.74554 12.304 3.63425 11.6914 4.70639L13.4279 5.69867ZM15.2717 3.6841C16.8942 2.51232 18.9238 1.89873 21.4204 1.89873V-0.101265C18.5837 -0.101265 16.1238 0.601602 14.1007 2.06274L15.2717 3.6841ZM21.4204 1.89873C24.9931 1.89873 27.8074 3.05747 29.9597 5.33277L31.4127 3.95837C28.8393 1.23789 25.4764 -0.101265 21.4204 -0.101265V1.89873ZM29.9791 5.35268C29.9738 5.34739 29.9667 5.33909 29.9594 5.32791C29.952 5.31669 29.9465 5.3055 29.9427 5.29569C29.9348 5.27513 29.9394 5.27348 29.9394 5.3038H31.9394C31.9394 4.80651 31.7749 4.32002 31.3933 3.93846L29.9791 5.35268ZM29.9394 5.3038C29.9394 5.39838 29.9334 5.46883 29.9257 5.51883C29.9219 5.54341 29.918 5.56135 29.9148 5.57353C29.9116 5.5857 29.9095 5.59097 29.9096 5.59063L31.7666 6.33342C31.8985 6.00375 31.9394 5.64503 31.9394 5.3038H29.9394ZM29.8575 5.76591C29.8525 5.79126 29.8454 5.80458 29.8356 5.81772L31.4356 7.01772C31.6283 6.76082 31.7563 6.47034 31.8187 6.15814L29.8575 5.76591ZM29.8163 5.84426C29.7769 5.90058 29.7532 5.91196 29.7521 5.91255C29.7516 5.91281 29.7332 5.92405 29.6736 5.92405V7.92405C30.4116 7.92405 31.0352 7.59057 31.4548 6.99118L29.8163 5.84426ZM29.6736 5.92405C29.6617 5.92405 29.465 5.90888 29.0642 5.50808L27.65 6.9223C28.1943 7.46665 28.8753 7.92405 29.6736 7.92405V5.92405ZM28.9529 5.41209C27.8805 4.61642 26.9309 4.02413 26.1181 3.67579L25.3303 5.51408C25.9352 5.77334 26.7409 6.26122 27.7613 7.01829L28.9529 5.41209ZM26.0999 3.6682C24.7255 3.11099 23.2639 2.83544 21.7242 2.83544V4.83544C23.0199 4.83544 24.225 5.06622 25.3485 5.52167L26.0999 3.6682ZM21.7242 2.83544C19.8959 2.83544 18.2743 3.22021 16.9059 4.04124L17.9349 5.75623C18.9294 5.15954 20.177 4.83544 21.7242 4.83544V2.83544ZM16.9311 4.02659C15.2774 4.95431 14.3444 6.36099 14.3444 8.18987H16.3444C16.3444 7.18332 16.7955 6.3959 17.9096 5.77088L16.9311 4.02659ZM38.011 1.75949L37.3327 1.02469L37.2935 1.06086L37.2584 1.10099L38.011 1.75949ZM56.7452 4.79747L55.8972 5.32747L55.9049 5.33993L55.9131 5.35217L56.7452 4.79747ZM56.1376 12.2911L55.419 11.5957L55.4131 11.6018L55.4073 11.608L56.1376 12.2911ZM51.935 14.4684L51.7181 13.4922L50.935 13.6662V14.4684H51.935ZM51.935 14.5696H50.935V15.43L51.7858 15.5584L51.935 14.5696ZM55.7325 16.5443L56.5787 16.0115L56.564 15.9881L56.548 15.9656L55.7325 16.5443ZM56.8464 20.038L57.8395 19.9205L57.8394 19.9198L56.8464 20.038ZM57.5553 27.2785H58.5553V27.2485L58.5535 27.2186L57.5553 27.2785ZM56.9983 28.5949L57.6231 29.3759L57.6316 29.3689L56.9983 28.5949ZM54.6186 28.6456L54.0304 29.4543L54.0555 29.4726L54.0817 29.4892L54.6186 28.6456ZM54.011 27.4304L55.009 27.368L55.0077 27.3463L55.0054 27.3246L54.011 27.4304ZM53.6059 23.2785L52.6094 23.3615L52.6096 23.3639L53.6059 23.2785ZM53.2515 20.1899L52.264 20.3479L52.264 20.3479L53.2515 20.1899ZM52.6945 18.1646L51.7582 18.5157L51.7719 18.5521L51.7883 18.5874L52.6945 18.1646ZM51.7831 16.8987L52.3831 16.0987L52.3688 16.088L52.3542 16.0778L51.7831 16.8987ZM41.0996 16.0886V15.0886H40.0996V16.0886H41.0996ZM40.0363 28.8987L40.311 29.8603L40.3319 29.8543L40.3525 29.8474L40.0363 28.8987ZM38.1629 28.5949L37.5382 29.3758L37.5561 29.3902L37.5747 29.4037L38.1629 28.5949ZM52.7958 11.7848L52.1201 11.0477L52.1099 11.057L52.1 11.0666L52.7958 11.7848ZM51.8338 4.59494L51.4109 5.50112L51.412 5.50166L51.8338 4.59494ZM41.0996 3.88608V2.88608H40.0996V3.88608H41.0996ZM41.0996 13.3544H40.0996V14.3544H41.0996V13.3544ZM38.6565 2.82278C38.6565 2.56987 38.7203 2.46741 38.7636 2.418L37.2584 1.10099C36.8291 1.59166 36.6565 2.19807 36.6565 2.82278H38.6565ZM38.6893 2.4943C38.994 2.21299 39.2182 2.1519 39.3781 2.1519V0.151899C38.5928 0.151899 37.9056 0.495866 37.3327 1.02469L38.6893 2.4943ZM39.3781 2.1519H47.7831V0.151899H39.3781V2.1519ZM47.7831 2.1519C52.0959 2.1519 54.647 3.32721 55.8972 5.32747L57.5932 4.26747C55.8053 1.40697 52.3818 0.151899 47.7831 0.151899V2.1519ZM55.9131 5.35217C56.3764 6.04709 56.6565 7.04768 56.6565 8.44304H58.6565C58.6565 6.80042 58.3291 5.37063 57.5772 4.24277L55.9131 5.35217ZM56.6565 8.44304C56.6565 9.7149 56.2427 10.7445 55.419 11.5957L56.8562 12.9866C58.0578 11.7449 58.6565 10.2092 58.6565 8.44304H56.6565ZM55.4073 11.608C54.6023 12.4685 53.4032 13.1177 51.7181 13.4922L52.152 15.4445C54.1124 15.0089 55.715 14.2066 56.8678 12.9743L55.4073 11.608ZM50.935 14.4684V14.5696H52.935V14.4684H50.935ZM51.7858 15.5584C53.4184 15.8048 54.3869 16.3761 54.917 17.1231L56.548 15.9656C55.5929 14.6197 54.0298 13.8745 52.0843 13.5808L51.7858 15.5584ZM54.8863 17.0771C55.3597 17.829 55.6967 18.84 55.8534 20.1562L57.8394 19.9198C57.6585 18.4005 57.253 17.0824 56.5787 16.0115L54.8863 17.0771ZM55.8533 20.1554C56.224 23.2889 56.4576 25.6797 56.5571 27.3384L58.5535 27.2186C58.4505 25.5017 58.2115 23.0655 57.8395 19.9205L55.8533 20.1554ZM56.5553 27.2785C56.5553 27.6176 56.4581 27.7449 56.3651 27.821L57.6316 29.3689C58.2811 28.8374 58.5553 28.0871 58.5553 27.2785H56.5553ZM56.3736 27.8141C56.2163 27.9399 56.0492 28 55.8338 28V30C56.4959 30 57.1053 29.79 57.623 29.3758L56.3736 27.8141ZM55.8338 28C55.5857 28 55.3668 27.9364 55.1554 27.8019L54.0817 29.4892C54.613 29.8273 55.2042 30 55.8338 30V28ZM55.2067 27.8368C55.1205 27.7741 55.0279 27.6697 55.009 27.368L53.0129 27.4928C53.0616 28.2713 53.374 28.9769 54.0304 29.4543L55.2067 27.8368ZM55.0054 27.3246C54.8371 25.7427 54.7028 24.3659 54.6023 23.1931L52.6096 23.3639C52.7116 24.554 52.8473 25.945 53.0166 27.5362L55.0054 27.3246ZM54.6025 23.1954C54.4999 21.9648 54.3792 20.9086 54.2389 20.0319L52.264 20.3479C52.3938 21.1589 52.5094 22.1618 52.6094 23.3615L54.6025 23.1954ZM54.2389 20.0319C54.0961 19.1393 53.8912 18.3641 53.6007 17.7417L51.7883 18.5874C51.9705 18.9777 52.1368 19.5526 52.264 20.3479L54.2389 20.0319ZM53.6309 17.8134C53.3709 17.1202 52.9613 16.5323 52.3831 16.0987L51.1831 17.6987C51.4151 17.8727 51.6131 18.1287 51.7582 18.5157L53.6309 17.8134ZM52.3542 16.0778C51.3072 15.3495 49.6656 15.0886 47.6819 15.0886V17.0886C49.6137 17.0886 50.7063 17.3678 51.2121 17.7196L52.3542 16.0778ZM47.6819 15.0886H41.0996V17.0886H47.6819V15.0886ZM40.0996 16.0886V27.3797H42.0996V16.0886H40.0996ZM40.0996 27.3797C40.0996 27.6156 40.047 27.7219 40.0145 27.7683C39.9844 27.8114 39.9145 27.8852 39.7201 27.9501L40.3525 29.8474C40.8669 29.6759 41.3287 29.3784 41.653 28.9152C41.9749 28.4553 42.0996 27.9203 42.0996 27.3797H40.0996ZM39.7616 27.9372C39.6409 27.9717 39.4522 28 39.1755 28V30C39.574 30 39.9591 29.9608 40.311 29.8603L39.7616 27.9372ZM39.1755 28C39.1663 28 39.034 27.992 38.751 27.7862L37.5747 29.4037C38.0344 29.738 38.5772 30 39.1755 30V28ZM38.7876 27.8141C38.7453 27.7802 38.6565 27.6991 38.6565 27.3797H36.6565C36.6565 28.1405 36.9053 28.8695 37.5382 29.3758L38.7876 27.8141ZM38.6565 27.3797V2.82278H36.6565V27.3797H38.6565ZM46.2135 14.3544C47.913 14.3544 49.3727 14.2207 50.572 13.9348C51.7627 13.6508 52.7736 13.1986 53.4916 12.5031L52.1 11.0666C51.7378 11.4174 51.1115 11.75 50.1081 11.9893C49.1134 12.2265 47.8221 12.3544 46.2135 12.3544V14.3544ZM53.4715 12.522C54.5393 11.5432 55.011 10.1815 55.011 8.59494H53.011C53.011 9.77626 52.6725 10.5412 52.1201 11.0477L53.4715 12.522ZM55.011 8.59494C55.011 7.48254 54.8088 6.47523 54.345 5.62319C53.874 4.7578 53.1641 4.11083 52.2555 3.68821L51.412 5.50166C51.9549 5.75415 52.3337 6.1114 52.5884 6.57934C52.8503 7.06063 53.011 7.71577 53.011 8.59494H55.011ZM52.2566 3.68875C51.0502 3.12574 49.4281 2.88608 47.4793 2.88608V4.88608C49.3112 4.88608 50.592 5.11899 51.4109 5.50112L52.2566 3.68875ZM47.4793 2.88608H41.0996V4.88608H47.4793V2.88608ZM40.0996 3.88608V13.3544H42.0996V3.88608H40.0996ZM41.0996 14.3544H46.2135V12.3544H41.0996V14.3544ZM68.8397 32.443L68.1707 31.6997L68.1512 31.7173L68.1326 31.7359L68.8397 32.443ZM63.2194 32.4937L64.0194 31.8937L63.9999 31.8676L63.9787 31.8429L63.2194 32.4937ZM63.2194 30.8228L62.4602 30.172L62.439 30.1967L62.4194 30.2228L63.2194 30.8228ZM66.1562 30.4684V31.4684H67.1562V30.4684H66.1562ZM66.1562 3.53165H67.1562V2.53165H66.1562V3.53165ZM63.2194 3.17722L62.4194 3.77721L62.439 3.80327L62.4602 3.82801L63.2194 3.17722ZM63.2194 1.50633L63.9787 2.15712L63.9787 2.15712L63.2194 1.50633ZM68.8397 1.6076L68.1326 2.3147L68.1512 2.3333L68.1707 2.35089L68.8397 1.6076ZM68.346 31.3291C68.346 31.4734 68.3059 31.5781 68.1707 31.6997L69.5087 33.1863C70.0486 32.7004 70.346 32.0625 70.346 31.3291H68.346ZM68.1326 31.7359C68.0208 31.8477 67.9057 31.8987 67.7258 31.8987V33.8987C68.4235 33.8987 69.051 33.6459 69.5468 33.1501L68.1326 31.7359ZM67.7258 31.8987H64.1308V33.8987H67.7258V31.8987ZM64.1308 31.8987C64.0848 31.8987 64.0531 31.8949 64.0331 31.8911C64.0136 31.8874 64.0055 31.8837 64.0053 31.8837C64.0051 31.8836 64.0063 31.8841 64.0083 31.8853C64.0104 31.8866 64.0127 31.8882 64.015 31.89C64.0202 31.8942 64.0216 31.8965 64.0194 31.8937L62.4194 33.0937C62.8496 33.6672 63.4818 33.8987 64.1308 33.8987V31.8987ZM63.9787 31.8429C63.9274 31.783 63.9156 31.7423 63.9156 31.6835H61.9156C61.9156 32.2324 62.1065 32.7318 62.4602 33.1445L63.9787 31.8429ZM63.9156 31.6835C63.9156 31.6201 63.9316 31.54 64.0194 31.4228L62.4194 30.2228C62.1023 30.6457 61.9156 31.1394 61.9156 31.6835H63.9156ZM63.9787 31.4736C63.9751 31.4778 63.9697 31.4828 63.9638 31.487C63.958 31.491 63.9562 31.4911 63.9616 31.489C63.9737 31.4843 64.0233 31.4684 64.1308 31.4684V29.4684C63.5279 29.4684 62.9064 29.6514 62.4602 30.172L63.9787 31.4736ZM64.1308 31.4684H66.1562V29.4684H64.1308V31.4684ZM67.1562 30.4684V3.53165H65.1562V30.4684H67.1562ZM66.1562 2.53165H64.1308V4.53165H66.1562V2.53165ZM64.1308 2.53165C64.0233 2.53165 63.9737 2.51573 63.9616 2.51103C63.9562 2.50892 63.958 2.50901 63.9638 2.51305C63.9697 2.51721 63.9751 2.52223 63.9787 2.52642L62.4602 3.82801C62.9064 4.34858 63.5279 4.53165 64.1308 4.53165V2.53165ZM64.0194 2.57722C63.9316 2.46003 63.9156 2.37988 63.9156 2.31645H61.9156C61.9156 2.86063 62.1023 3.35432 62.4194 3.77721L64.0194 2.57722ZM63.9156 2.31645C63.9156 2.25767 63.9274 2.21701 63.9787 2.15712L62.4602 0.855536C62.1065 1.26823 61.9156 1.76765 61.9156 2.31645H63.9156ZM63.9787 2.15712C63.9751 2.16132 63.9697 2.16633 63.9638 2.1705C63.958 2.17454 63.9562 2.17462 63.9616 2.17251C63.9737 2.16782 64.0233 2.1519 64.1308 2.1519V0.151899C63.5279 0.151899 62.9064 0.334961 62.4602 0.855539L63.9787 2.15712ZM64.1308 2.1519H67.7258V0.151899H64.1308V2.1519ZM67.7258 2.1519C67.9057 2.1519 68.0208 2.20289 68.1326 2.3147L69.5468 0.900489C69.051 0.404709 68.4235 0.151899 67.7258 0.151899V2.1519ZM68.1707 2.35089C68.3059 2.47256 68.346 2.57724 68.346 2.72152H70.346C70.346 1.98816 70.0486 1.35022 69.5087 0.8643L68.1707 2.35089ZM68.346 2.72152V31.3291H70.346V2.72152H68.346Z" fill="black" mask="url(#path-1-outside-1_38_8)"/>
<defs>
<filter id="filter0_i_38_8" x="0.392395" y="0.898743" width="68.9536" height="36" filterUnits="userSpaceOnUse" color-interpolation-filters="sRGB">
<feFlood flood-opacity="0" result="BackgroundImageFix"/>
<feBlend mode="normal" in="SourceGraphic" in2="BackgroundImageFix" result="shape"/>
<feColorMatrix in="SourceAlpha" type="matrix" values="0 0 0 0 0 0 0 0 0 0 0 0 0 0 0 0 0 0 127 0" result="hardAlpha"/>
<feOffset dy="4"/>
<feGaussianBlur stdDeviation="2"/>
<feComposite in2="hardAlpha" operator="arithmetic" k2="-1" k3="1"/>
<feColorMatrix type="matrix" values="0 0 0 0 0 0 0 0 0 0 0 0 0 0 0 0 0 0 0.25 0"/>
<feBlend mode="normal" in2="shape" result="effect1_innerShadow_38_8"/>
</filter>
</defs>
</svg>
